Edge of Darkness (2010) (1080p)       




Edge.of.darkness.2010.1080p.DTS.X264_R_Knorloading


Verenigd Koninkrijk / Verenigde Staten

Drama / Thriller

117 minuten

geregisseerd door Martin Campbell
met Mel Gibson, Ray Winstone en Danny Huston

Thomas Craven is een rechercheur, wiens dochter vlak voor zijn huis is vermoord. Men gaat ervan uit dat hijzelf het doelwit was, maar als Craven in het verleden van zijn dochter duikt, blijkt dat ze een gevaarlijke doofpotaffaire heeft ontdekt . Daarbovenop ontdekt hij dat er afspraken zijn tussen het bedrijf waar ze werkte en de overheid, waarbij ze iemand inhuren om het bewijs te vernietigen.

English

Storyline
Thomas Craven, is a detective who has spent years working the streets of Boston. When his own daughter is killed near the door of his home, Craven realizes that her death is only one piece of an intriguing puzzle filled with corruption and conspiracy, and it falls to him to discover who is behind the crime. 




Gestreamd Voor PS3 + Popcorn + Mediabox




===================================================

-------- Source: Edge.of.Darkness.2010.1080p.Bluray.x264-ETHOS
-------- Video Format: X264/ Mkv
-------- Video Info: 1920 x 814 23.98 Fps
-------- Geluidinfo: DTS 6ch 48 Khz 1.54 Mbps / AC3 6ch 640 Kbps
-------- Subs: Dutch
-------- Bestandgrote: 9.27 Gb
-------- Speelduur: 117 Minutes

===================================================

Spotinformatie 
Categorie : Beeld 
Formaat : x264HD 
Bron : Retail
 
Ondertitels : Nederlands (instelbaar)

Format                           : Matroska
File size                        : 9.27 GiB
Duration                         : 1h 56mn
Overall bit rate                 : 11.4 Mbps
Encoded date                     : UTC 2010-10-11 12:02:49
Writing application              : mkvmerge v3.0.0 ('Hang up your Hang-Ups') built on Dec 12 2009 15:20:35
Writing library                  : libebml v0.7.9 + libmatroska v0.8.1

Video
ID                               : 1
Format                           : AVC
Format/Info                      : Advanced Video Codec
Format profile                   : High@L4.1
Format settings, CABAC           : Yes
Format settings, ReFrames        : 4 frames
Muxing mode                      : Container profile=Unknown@4.1
Codec ID                         : V_MPEG4/ISO/AVC
Duration                         : 1h 56mn
Bit rate                         : 9 206 Kbps
Width                            : 1 920 pixels
Height                           : 816 pixels
Display aspect ratio             : 2.35:1
Frame rate                       : 23.976 fps
Color space                      : YUV
Chroma subsampling               : 4:2:0
Bit depth                        : 8 bits
Scan type                        : Progressive
Bits/(Pixel*Frame)               : 0.245
Stream size                      : 7.33 GiB (79%)
Writing library                  : x264 core 94 r1564 a927654
Encoding settings                : cabac=1 / ref=5 / deblock=1:0:0 / analyse=0x3:0x133 / me=umh / subme=7 / psy=1 / psy_rd=1.00:0.00 / mixed_ref=1 / me_range=16 / chroma_me=1 / trellis=1 / 8x8dct=1 / cqm=0 / deadzone=21,11 / fast_pskip=0 / chroma_qp_offset=-2 / threads=12 / sliced_threads=0 / nr=0 / decimate=1 / interlaced=0 / constrained_intra=0 / bframes=3 / b_pyramid=1 / b_adapt=1 / b_bias=0 / direct=1 / wpredb=1 / wpredp=2 / keyint=250 / keyint_min=25 / scenecut=40 / intra_refresh=0 / rc_lookahead=40 / rc=2pass / mbtree=1 / bitrate=9206 / ratetol=1.0 / qcomp=0.60 / qpmin=10 / qpmax=51 / qpstep=4 / cplxblur=20.0 / qblur=0.5 / ip_ratio=1.40 / aq=1:1.00

Audio #1
ID                               : 2
Format                           : AC-3
Format/Info                      : Audio Coding 3
Mode extension                   : CM (complete main)
Codec ID                         : A_AC3
Duration                         : 1h 56mn
Bit rate mode                    : Constant
Bit rate                         : 640 Kbps
Channel(s)                       : 6 channels
Channel positions                : Front: L C R, Side: L R, LFE
Sampling rate                    : 48.0 KHz
Bit depth                        : 16 bits
Stream size                      : 535 MiB (6%)
Language                         : English

Audio #2
ID                               : 3
Format                           : DTS
Format/Info                      : Digital Theater Systems
Codec ID                         : A_DTS
Duration                         : 1h 56mn
Bit rate mode                    : Constant
Bit rate                         : 1 510 Kbps
Channel(s)                       : 6 channels
Channel positions                : Front: L C R, Side: L R, LFE
Sampling rate                    : 48.0 KHz
Bit depth                        : 24 bits
Stream size                      : 1.23 GiB (13%)
Language                         : English

Text
ID                               : 4
Format                           : UTF-8
Codec ID                         : S_TEXT/UTF8
Codec ID/Info                    : UTF-8 Plain Text
Language                         : Dutch


 
Genre : Drama
Thriller
 
Weblink :  http://www.moviemeter.nl/film/53187 
Weblink :  http://www.imdb.com/title/tt1226273

*****************************************

Brought to you by 
2Lions Team

meer zien??
Kom dan eens kijken op ons Forum 
                           
http://www.2lions-site.nl  

2Lions the site to be for all your Dutch MOVIES and more

******************************************


DON T HIT AND RUN Niet gelijk afhaken als de FILM binnen is blijf seeden. 

Don`t quit after you finished the download, but keep seeding


There are fake torrents from uploaders who use our team name.
Those are not ours, or members from our team.
We 2Lions-Team are not responsible for the fake posts on our name

Wij 2Lions-Team zijn niet verantwoordelijk voor die zieke FAKE posten die op onze naam worden gedaan

Please check our site !!!
To the fakers Get a Live
 
 
 
 

 
 
 
